<?xml version="1.0" encoding="iso-8859-1"?>
<!-- Uploaded to: SVG Repo, www.svgrepo.com, Generator: SVG Repo Mixer Tools -->
<svg height="800px" width="800px" version="1.1" id="Layer_1" xmlns="http://www.w3.org/2000/svg" xmlns:xlink="http://www.w3.org/1999/xlink" 
	 viewBox="0 0 512 512" xml:space="preserve">
<path style="fill:#8AD5DD;" d="M416,333.224H302.04c-14.112,20.736-25.528,35.96-28.84,40.344l-5.856,7.688
	c40.832,0.616,72.64,5.488,72.64,11.408c0,6.336-36.416,11.48-81.336,11.48s-81.336-5.136-81.336-11.48
	c0-5.928,31.84-10.8,72.696-11.408l-5.824-7.688c-3.336-4.368-14.792-19.592-28.936-40.344H96L0,460.936h512L416,333.224z"/>
<path style="fill:#79C2C6;" d="M250.016,381.264c-40.856,0.608-72.696,5.48-72.696,11.408c0,6.336,36.416,11.48,81.336,11.48
	s81.336-5.136,81.336-11.48c0-5.92-31.808-10.8-72.64-11.408l-8.696,11.408L250.016,381.264z"/>
<path style="fill:#DB2B42;" d="M250.016,381.264l8.64,11.408l8.696-11.408l5.856-7.688c3.304-4.392,14.72-19.616,28.84-40.344
	c30.936-45.44,74.848-117.368,74.848-159.84c0-74.312-46.384-122.328-118.24-122.328s-118.24,48.024-118.24,122.328
	c0,42.512,43.88,114.416,74.84,159.84c14.144,20.752,25.6,35.984,28.936,40.344L250.016,381.264z M258.56,135.912
	c21.144,0,38.288,17.144,38.288,38.288s-17.144,38.288-38.288,38.288s-38.288-17.144-38.288-38.288S237.416,135.912,258.56,135.912z
	"/>
<circle style="fill:#FFFFFF;" cx="258.592" cy="174.2" r="38.288"/>
</svg>